REM DIRINDEX 1\2\6,1\2\7,1\2\8,1\2\9,1\3\10,1\3\11,1\4\12,1\4\13,1\4\14,1\5\15,1\5\16,1\5\17
REM DIRNAME cjc020,folder01,folder02,folder03,folder04,folder05,folder06,folder07,folder08,folder09,folder10,folder11,folder12,folder13,folder14,folder15,folder16
TITLE ""
FILE "1900_2_sec09_0886_0900.mp3" MP3
  TRACK 01 AUDIO
    TITLE "0:"
    INDEX 01 00:00:00
  TRACK 02 AUDIO
    TITLE "13:cjc020_3894"
    INDEX 01 00:00:17
  TRACK 03 AUDIO
    TITLE "0:"
    INDEX 01 00:01:17
  TRACK 04 AUDIO
    TITLE "14:cjc020_3895"
    INDEX 01 00:01:22
  TRACK 05 AUDIO
    TITLE "0:"
    INDEX 01 00:04:23
  TRACK 06 AUDIO
    TITLE "13:cjc020_3896"
    INDEX 01 00:05:05
  TRACK 07 AUDIO
    TITLE "0:"
    INDEX 01 00:06:10
  TRACK 08 AUDIO
    TITLE "14:cjc020_3897"
    INDEX 01 00:06:16
  TRACK 09 AUDIO
    TITLE "0:"
    INDEX 01 00:08:34
  TRACK 10 AUDIO
    TITLE "13:cjc020_3898"
    INDEX 01 00:09:10
  TRACK 11 AUDIO
    TITLE "0:"
    INDEX 01 00:10:23
  TRACK 12 AUDIO
    TITLE "14:cjc020_3899"
    INDEX 01 00:10:29
  TRACK 13 AUDIO
    TITLE "0:"
    INDEX 01 00:11:64
  TRACK 14 AUDIO
    TITLE "13:cjc020_3900"
    INDEX 01 00:12:44
  TRACK 15 AUDIO
    TITLE "0:"
    INDEX 01 00:13:45
  TRACK 16 AUDIO
    TITLE "14:cjc020_3901"
    INDEX 01 00:13:49
  TRACK 17 AUDIO
    TITLE "0:"
    INDEX 01 00:17:59
  TRACK 18 AUDIO
    TITLE "13:cjc020_3902"
    INDEX 01 00:18:37
  TRACK 19 AUDIO
    TITLE "0:"
    INDEX 01 00:19:44
  TRACK 20 AUDIO
    TITLE "14:cjc020_3903"
    INDEX 01 00:19:48
  TRACK 21 AUDIO
    TITLE "0:"
    INDEX 01 00:22:11
  TRACK 22 AUDIO
    TITLE "13:cjc020_3904"
    INDEX 01 00:22:66
  TRACK 23 AUDIO
    TITLE "0:"
    INDEX 01 00:23:67
  TRACK 24 AUDIO
    TITLE "14:cjc020_3905"
    INDEX 01 00:23:73
  TRACK 25 AUDIO
    TITLE "0:"
    INDEX 01 00:26:56
  TRACK 26 AUDIO
    TITLE "13:cjc020_3906"
    INDEX 01 00:27:36
  TRACK 27 AUDIO
    TITLE "0:"
    INDEX 01 00:28:35
  TRACK 28 AUDIO
    TITLE "14:cjc020_3907"
    INDEX 01 00:28:37
  TRACK 29 AUDIO
    TITLE "0:"
    INDEX 01 00:29:36
  TRACK 30 AUDIO
    TITLE "13:cjc020_3908"
    INDEX 01 00:30:14
  TRACK 31 AUDIO
    TITLE "0:"
    INDEX 01 00:31:20
  TRACK 32 AUDIO
    TITLE "14:cjc020_3909"
    INDEX 01 00:31:24
  TRACK 33 AUDIO
    TITLE "0:"
    INDEX 01 00:33:52
  TRACK 34 AUDIO
    TITLE "13:cjc020_3910"
    INDEX 01 00:34:32
  TRACK 35 AUDIO
    TITLE "0:"
    INDEX 01 00:35:37
  TRACK 36 AUDIO
    TITLE "14:cjc020_3911"
    INDEX 01 00:35:41
  TRACK 37 AUDIO
    TITLE "0:"
    INDEX 01 00:38:59
  TRACK 38 AUDIO
    TITLE "13:cjc020_3912"
    INDEX 01 00:39:35
  TRACK 39 AUDIO
    TITLE "0:"
    INDEX 01 00:40:38
  TRACK 40 AUDIO
    TITLE "14:cjc020_3913"
    INDEX 01 00:40:44
  TRACK 41 AUDIO
    TITLE "0:"
    INDEX 01 00:43:23
  TRACK 42 AUDIO
    TITLE "13:cjc020_3914"
    INDEX 01 00:44:03
  TRACK 43 AUDIO
    TITLE "0:"
    INDEX 01 00:45:04
  TRACK 44 AUDIO
    TITLE "14:cjc020_3915"
    INDEX 01 00:45:10
  TRACK 45 AUDIO
    TITLE "0:"
    INDEX 01 00:47:50
  TRACK 46 AUDIO
    TITLE "13:cjc020_3916"
    INDEX 01 00:48:28
  TRACK 47 AUDIO
    TITLE "0:"
    INDEX 01 00:49:23
  TRACK 48 AUDIO
    TITLE "14:cjc020_3917"
    INDEX 01 00:49:25
  TRACK 49 AUDIO
    TITLE "0:"
    INDEX 01 00:51:28
  TRACK 50 AUDIO
    TITLE "13:cjc020_3918"
    INDEX 01 00:52:06
  TRACK 51 AUDIO
    TITLE "0:"
    INDEX 01 00:53:15
  TRACK 52 AUDIO
    TITLE "14:cjc020_3919"
    INDEX 01 00:53:19
  TRACK 53 AUDIO
    TITLE "0:"
    INDEX 01 00:55:26
  TRACK 54 AUDIO
    TITLE "13:cjc020_3920"
    INDEX 01 00:56:08
  TRACK 55 AUDIO
    TITLE "0:"
    INDEX 01 00:57:17
  TRACK 56 AUDIO
    TITLE "14:cjc020_3921"
    INDEX 01 00:57:21
  TRACK 57 AUDIO
    TITLE "0:"
    INDEX 01 00:58:58
  TRACK 58 AUDIO
    TITLE "13:cjc020_3922"
    INDEX 01 00:59:38
  TRACK 59 AUDIO
    TITLE "0:"
    INDEX 01 01:00:41
  TRACK 60 AUDIO
    TITLE "14:cjc020_3923"
    INDEX 01 01:00:45
  TRACK 61 AUDIO
    TITLE "0:"
    INDEX 01 01:01:62
